PathFileType	4	(X/Y/Z)	C:/Users/opensim2020/Desktop/walking_exp_matlab/subject06_walking22_straight_02.trc																																																																																																																																		
DataRate	CameraRate	NumFrames	NumMarkers	Units	OrigDataRate	OrigDataStartFrame	OrigNumFrames																																																																																																																														
100	100	5	44	mm	100	1299	81																																																																																																																														
Frame#	Time	LFHD			RFHD			LBHD			RBHD			C7			T10			CLAV			STRN			RBAK			LSHO			LUPA			LELB			LFRM			LWRA			LWRB			LFIN			RSHO			RUPA			RELB			RFRM			RWRA			RWRB			RFIN			LASI			RASI			LPSI			RPSI			LTHI			LKNE			LTIB			LANK			LHEE			LTOE			RTHI			RKNE			RTIB			RANK			RHEE			RTOE			*39			*40			*41			*42			*43		
		X1	Y1	Z1	X2	Y2	Z2	X3	Y3	Z3	X4	Y4	Z4	X5	Y5	Z5	X6	Y6	Z6	X7	Y7	Z7	X8	Y8	Z8	X9	Y9	Z9	X10	Y10	Z10	X11	Y11	Z11	X12	Y12	Z12	X13	Y13	Z13	X14	Y14	Z14	X15	Y15	Z15	X16	Y16	Z16	X17	Y17	Z17	X18	Y18	Z18	X19	Y19	Z19	X20	Y20	Z20	X21	Y21	Z21	X22	Y22	Z22	X23	Y23	Z23	X24	Y24	Z24	X25	Y25	Z25	X26	Y26	Z26	X27	Y27	Z27	X28	Y28	Z28	X29	Y29	Z29	X30	Y30	Z30	X31	Y31	Z31	X32	Y32	Z32	X33	Y33	Z33	X34	Y34	Z34	X35	Y35	Z35	X36	Y36	Z36	X37	Y37	Z37	X38	Y38	Z38	X39	Y39	Z39	X40	Y40	Z40	X41	Y41	Z41	X42	Y42	Z42	X43	Y43	Z43	X44	Y44	Z44
																																																																																																																																					
41	0.4	-153.84264	1634.07983	895.91846	-134.28043	1640.02234	1026.74719	-286.38412	1585.36377	922.49823	-265.17221	1595.72009	1049.70569	-281.34335	1434.36035	987.03558	-324.12427	1106.77161	1005.8797	-173.35591	1354.59473	987.97089	-138.55318	1178.24963	990.83374	-356.80444	1269.56226	1077.60205	-232.49048	1378.85779	826.10968	-274.49265	1179.19775	760.29901	-305.82275	1071.57861	750.94806	-320.88037	924.80023	719.79095	-280.85431	796.13806	741.48926	-348.33749	808.79474	720.22931	-331.64786	720.07861	708.00354	-216.5864	1398.01013	1148.00635	-261.79904	1214.14148	1256.1405	-251.54016	1097.62439	1281.18506	-190.04893	999.40234	1296.75671	-74.77345	910.49084	1252.33228	-117.63443	883.40088	1296.51526	-47.52291	837.62274	1291.31396	-143.78574	946.85205	902.00824	-155.27161	949.48181	1120.27246	-303.65411	968.47675	918.98511	-305.30261	976.7334	1087.33667	-130.75484	640.71301	831.70862	-55.90018	497.23157	863.30658	-33.14473	243.27919	872.87573	8.66962	75.29368	913.48285	-21.19456	52.26627	963.3927	153.53481	80.39013	906.35474	-251.7027	618.59015	1161.1084	-277.38501	494.2356	1138.60083	-408.19672	255.38538	1129.50195	-487.96432	87.53353	1083.23828	-535.10895	72.76719	1040.05225	-346.70047	30.49203	1083.61292	-243.2963	1683.40125	963.92151	NaN	NaN	NaN	NaN	NaN	NaN	NaN	NaN	NaN	NaN	NaN	NaN
42	0.41	-138.58992	1631.26392	894.85834	-118.42247	1637.61426	1025.52734	-270.86816	1582.4375	922.15442	-249.01674	1592.98254	1049.16162	-265.47806	1431.8186	986.64844	-308.33542	1104.12097	1005.3064	-157.44307	1351.94763	987.36084	-122.91319	1175.61255	990.50531	-340.89117	1267.4198	1077.57532	-216.79723	1375.97339	825.54901	-261.76971	1177.13428	759.84235	-295.1524	1070.13831	750.48102	-313.34247	923.83105	718.78448	-275.96994	794.02106	740.12878	-343.11169	808.4458	719.3028	-328.70804	719.58575	706.37994	-200.00424	1395.52246	1147.41467	-243.75793	1211.70862	1256.28113	-232.78773	1095.61902	1281.40967	-168.89789	999.22479	1296.34192	-51.41243	914.08716	1250.74548	-93.24303	885.53125	1294.84375	-21.67607	841.94336	1289.18567	-126.79144	944.65863	901.90875	-139.74255	947.31177	1120.6366	-286.62796	965.22443	917.89435	-289.64908	973.80542	1086.20923	-114.48112	637.30823	829.534	-39.30819	494.18719	863.16321	-6.61914	241.95697	872.18219	44.07168	75.92043	911.95172	15.15084	51.59148	961.60272	189.35648	87.02749	905.37579	-238.62798	617.10059	1161.40088	-265.80011	492.86234	1139.00049	-402.10626	256.86264	1129.61279	-486.09018	90.88605	1083.38916	-533.72504	77.62106	1040.16382	-346.49899	30.40329	1083.44495	-227.82031	1680.6283	963.23859	NaN	NaN	NaN	NaN	NaN	NaN	NaN	NaN	NaN	NaN	NaN	NaN
43	0.42	-123.23728	1628.76025	893.78204	-102.45332	1635.23083	1024.41296	-255.36946	1579.66736	921.76788	-232.91539	1590.40027	1048.71741	-249.6234	1429.33618	986.13031	-292.31799	1101.45984	1004.60889	-141.60234	1349.31079	986.63593	-107.10473	1173.05835	989.9978	-324.98801	1265.26746	1077.4104	-201.10822	1373.21704	824.88757	-248.89192	1175.27771	759.26776	-284.35507	1068.97375	749.93793	-305.30685	923.03613	718.26233	-270.32715	792.47821	738.63165	-337.32333	808.33545	718.52441	-324.88498	719.2915	705.09106	-183.54192	1393.08154	1146.76831	-225.94772	1209.18408	1256.0614	-214.24785	1093.55664	1281.40955	-148.21182	998.93109	1295.78198	-28.79907	917.37982	1249.16577	-69.55019	887.4469	1293.28235	3.20936	846.12195	1287.22461	-109.47675	942.4826	901.90704	-124.66183	945.00342	1120.96118	-269.17722	962.30353	916.56989	-273.85382	971.01056	1084.979	-97.15472	634.46545	828.15063	-22.27428	491.68381	862.98199	18.29038	241.01912	871.48383	76.02173	76.92821	910.67963	47.79898	51.45888	960.15448	221.36624	92.89055	904.72095	-225.0127	615.43103	1161.64087	-252.87579	491.21381	1139.22717	-394.97101	258.31754	1129.8335	-484.00031	94.82511	1084.04395	-531.96649	83.01598	1040.9397	-346.2775	30.45336	1083.34753	-212.21657	1677.95215	962.48871	NaN	NaN	NaN	NaN	NaN	NaN	NaN	NaN	NaN	NaN	NaN	NaN
44	0.43	-107.6884	1626.36389	892.71375	-86.42355	1632.94055	1023.32001	-239.67725	1577.09009	921.1972	-216.75949	1587.88477	1048.12488	-233.83081	1427.00854	985.4635	-276.11539	1098.91077	1003.92523	-125.66327	1346.93628	985.83124	-91.10376	1170.78455	989.48785	-309.18433	1263.14404	1077.08179	-185.50095	1370.68628	824.11072	-235.79961	1173.63586	758.55597	-273.1665	1067.96021	749.32983	-296.70294	922.44012	717.5495	-264.45978	790.95697	737.45673	-330.63712	808.31732	717.79309	-319.82983	719.18561	703.89594	-167.08426	1390.73621	1145.9635	-208.20268	1206.76587	1255.74854	-195.94354	1091.54749	1281.19629	-127.7399	998.50739	1294.73535	-6.78842	920.35321	1247.56482	-46.50158	889.15607	1291.77832	27.13819	849.86981	1285.28198	-91.92229	940.42993	901.98798	-108.64067	943.19257	1121.40198	-251.48875	959.81647	915.25146	-257.31723	968.17456	1083.52881	-78.86468	632.27643	827.7027	-4.93106	489.65643	862.65045	41.73333	240.2585	870.71686	104.18687	77.67096	909.92932	76.46379	51.31481	959.24072	249.2384	97.46721	904.487	-210.74081	613.63922	1161.81677	-238.99098	489.23477	1139.37927	-387.10654	259.91159	1130.1991	-481.01636	99.15244	1084.7085	-529.57092	89.33501	1041.72034	-345.99265	30.53804	1083.21912	-196.472	1675.4718	961.81714	NaN	NaN	NaN	NaN	NaN	NaN	NaN	NaN	NaN	NaN	NaN	NaN
45	0.44	-92.0249	1624.22827	891.62842	-70.32404	1630.78577	1022.19879	-223.99998	1574.89612	920.60278	-200.57814	1585.6366	1047.39233	-218.09491	1424.8894	984.75623	-259.67108	1096.46362	1003.2077	-109.6459	1344.7998	984.88672	-74.79945	1168.73706	988.85248	-293.01175	1260.90625	1076.35327	-169.88632	1368.32886	823.29626	-222.49117	1172.20886	757.73877	-261.54208	1067.08691	748.70898	-287.46527	922.0899	716.61926	-256.45767	790.35748	735.70068	-323.03485	808.28748	717.20404	-313.62848	719.1745	702.90558	-150.83498	1388.58606	1145.07434	-190.84633	1204.45032	1255.03735	-177.88947	1089.59485	1280.69397	-108.06955	997.97534	1293.77563	14.0523	922.78052	1246.08789	-24.72425	890.42224	1289.86926	49.99996	853.19617	1283.41724	-73.91531	938.70886	902.37396	-91.82582	941.29059	1121.3949	-233.48665	957.72626	913.98309	-240.82574	965.66449	1082.13977	-59.88245	630.53815	828.00134	12.77508	488.09396	862.22992	63.7533	239.39958	869.92853	128.69104	77.82043	909.49469	101.19318	50.55211	958.6311	273.1752	100.33449	904.55402	-195.66942	611.95844	1162.04919	-223.98334	487.41602	1139.79529	-378.34961	261.87573	1130.7511	-477.60928	104.26487	1085.6969	-526.38623	96.32651	1042.69202	-345.56113	30.66889	1083.21313	-180.69693	1673.20703	961.03265	NaN	NaN	NaN	NaN	NaN	NaN	NaN	NaN	NaN	NaN	NaN	NaN
